<svg width="952" height="79" viewBox="0 0 952 79" fill="none" xmlns="http://www.w3.org/2000/svg">
<path d="M1.24 26H3.94V13.004C3.94 10.916 3.724 8.108 3.58 6.02H3.724L5.596 11.384L10.06 23.624H12.04L16.504 11.384L18.376 6.02H18.52C18.376 8.108 18.124 10.916 18.124 13.004V26H20.932V2.384H17.296L12.832 14.984C12.256 16.604 11.788 18.296 11.212 19.916H11.068C10.492 18.296 9.952 16.604 9.376 14.984L4.84 2.384H1.24V26ZM27.3963 33.524C30.9243 33.524 32.7243 30.896 33.9483 27.44L40.5363 8.504H37.6563L34.5243 18.188C34.0563 19.736 33.5523 21.536 33.0483 23.12H32.9043C32.3643 21.5 31.7523 19.7 31.2123 18.188L27.6483 8.504H24.5883L31.6083 26.036L31.2123 27.332C30.4923 29.492 29.2323 31.076 27.2523 31.076C26.8203 31.076 26.2803 30.932 25.9203 30.824L25.3442 33.164C25.9203 33.38 26.6043 33.524 27.3963 33.524ZM50.6843 26.432C52.7723 26.432 54.7523 25.604 56.3363 24.2L55.0403 22.22C53.9603 23.192 52.5563 23.984 50.9363 23.984C47.7323 23.984 45.5363 21.284 45.5363 17.288C45.5363 13.256 47.8403 10.52 51.0083 10.52C52.4123 10.52 53.4923 11.168 54.5003 12.068L56.0123 10.124C54.7883 9.008 53.2043 8.072 50.9003 8.072C46.4003 8.072 42.4763 11.42 42.4763 17.288C42.4763 23.084 46.0403 26.432 50.6843 26.432ZM66.5088 26.432C68.8848 26.432 70.7568 25.604 72.2688 24.632L71.2248 22.688C69.9288 23.516 68.5248 24.056 66.8688 24.056C63.5208 24.056 61.2528 21.68 61.0368 17.972H72.8448C72.9168 17.54 72.9528 16.892 72.9528 16.28C72.9528 11.276 70.4328 8.072 65.9688 8.072C61.9728 8.072 58.1208 11.564 58.1208 17.288C58.1208 23.012 61.8288 26.432 66.5088 26.432ZM61.0008 15.848C61.3608 12.392 63.5928 10.412 66.0408 10.412C68.7768 10.412 70.3608 12.32 70.3608 15.848H61.0008ZM80.4082 26.432C81.2002 26.432 81.7042 26.324 82.1002 26.144L81.7042 23.912C81.3802 23.984 81.2362 23.984 81.0562 23.984C80.6242 23.984 80.2282 23.624 80.2282 22.688V0.368H77.2762V22.472C77.2762 25.028 78.1762 26.432 80.4082 26.432ZM86.452 26H89.404V8.504H86.452V26ZM87.964 4.904C89.116 4.904 89.944 4.148 89.944 2.96C89.944 1.808 89.116 1.016 87.964 1.016C86.812 1.016 85.984 1.808 85.984 2.96C85.984 4.148 86.812 4.904 87.964 4.904ZM100.423 26.432C102.835 26.432 104.563 25.172 106.183 23.264H106.291L106.543 26H108.991V8.504H106.039V20.924C104.383 22.976 103.123 23.876 101.323 23.876C99.0194 23.876 98.0474 22.472 98.0474 19.196V8.504H95.0594V19.592C95.0594 24.056 96.7154 26.432 100.423 26.432ZM114.893 26H117.845V13.328C119.465 11.528 120.941 10.628 122.237 10.628C124.469 10.628 125.513 12.032 125.513 15.308V26H128.465V13.328C130.085 11.528 131.489 10.628 132.857 10.628C135.053 10.628 136.097 12.032 136.097 15.308V26H139.049V14.912C139.049 10.448 137.321 8.072 133.721 8.072C131.597 8.072 129.797 9.44 127.961 11.42C127.241 9.332 125.801 8.072 123.137 8.072C121.049 8.072 119.213 9.368 117.701 11.024H117.593L117.341 8.504H114.893V26ZM159.688 26.432C163.684 26.432 167.248 22.94 167.248 16.964C167.248 11.564 164.836 8.072 160.3 8.072C158.356 8.072 156.412 9.116 154.828 10.52L154.9 7.352V0.368H151.948V26H154.324L154.576 24.2H154.684C156.232 25.604 158.068 26.432 159.688 26.432ZM159.184 23.948C158.032 23.948 156.448 23.444 154.9 22.112V12.932C156.556 11.384 158.104 10.556 159.58 10.556C162.892 10.556 164.188 13.148 164.188 17C164.188 21.32 162.064 23.948 159.184 23.948ZM171.847 26H174.799V14.768C175.987 11.816 177.751 10.736 179.227 10.736C179.947 10.736 180.343 10.844 180.919 11.024L181.495 8.432C180.919 8.18 180.379 8.072 179.623 8.072C177.643 8.072 175.843 9.476 174.655 11.672H174.547L174.295 8.504H171.847V26ZM184.327 26H187.279V8.504H184.327V26ZM185.839 4.904C186.991 4.904 187.819 4.148 187.819 2.96C187.819 1.808 186.991 1.016 185.839 1.016C184.687 1.016 183.859 1.808 183.859 2.96C183.859 4.148 184.687 4.904 185.839 4.904ZM193.186 26H196.138V13.328C197.902 11.564 199.126 10.628 200.926 10.628C203.23 10.628 204.238 12.032 204.238 15.308V26H207.19V14.912C207.19 10.448 205.534 8.072 201.862 8.072C199.45 8.072 197.65 9.368 195.994 11.024H195.886L195.634 8.504H193.186V26ZM218.778 34.064C224.214 34.064 227.634 31.256 227.634 28.016C227.634 25.1 225.582 23.84 221.514 23.84H218.13C215.754 23.84 215.034 23.048 215.034 21.932C215.034 20.96 215.538 20.384 216.15 19.844C216.942 20.24 217.914 20.456 218.778 20.456C222.342 20.456 225.186 18.116 225.186 14.372C225.186 12.896 224.574 11.564 223.746 10.772H227.346V8.504H221.262C220.614 8.252 219.75 8.072 218.778 8.072C215.214 8.072 212.19 10.484 212.19 14.3C212.19 16.388 213.306 18.08 214.458 19.016V19.16C213.558 19.772 212.55 20.924 212.55 22.4C212.55 23.768 213.234 24.704 214.098 25.244V25.388C212.514 26.468 211.542 27.872 211.542 29.348C211.542 32.372 214.494 34.064 218.778 34.064ZM218.778 18.476C216.762 18.476 215.07 16.856 215.07 14.3C215.07 11.744 216.726 10.232 218.778 10.232C220.83 10.232 222.486 11.744 222.486 14.3C222.486 16.856 220.794 18.476 218.778 18.476ZM219.21 32.012C216.042 32.012 214.134 30.824 214.134 28.952C214.134 27.944 214.674 26.9 215.934 26C216.69 26.216 217.518 26.288 218.202 26.288H221.226C223.494 26.288 224.754 26.828 224.754 28.448C224.754 30.284 222.558 32.012 219.21 32.012ZM235.587 26.432C239.727 26.432 241.995 24.056 241.995 21.212C241.995 17.9 239.187 16.856 236.667 15.92C234.687 15.164 232.887 14.552 232.887 12.896C232.887 11.564 233.895 10.376 236.091 10.376C237.639 10.376 238.899 11.024 240.087 11.924L241.527 10.052C240.159 8.972 238.251 8.072 236.091 8.072C232.275 8.072 230.043 10.232 230.043 13.04C230.043 15.992 232.671 17.18 235.155 18.08C237.062 18.8 239.151 19.592 239.151 21.392C239.151 22.904 237.999 24.128 235.695 24.128C233.607 24.128 232.059 23.264 230.547 22.04L229.071 24.02C230.727 25.388 233.103 26.432 235.587 26.432ZM253.592 33.524C257.12 33.524 258.92 30.896 260.144 27.44L266.732 8.504H263.852L260.72 18.188C260.252 19.736 259.748 21.536 259.244 23.12H259.1C258.56 21.5 257.948 19.7 257.408 18.188L253.844 8.504H250.784L257.804 26.036L257.408 27.332C256.688 29.492 255.428 31.076 253.448 31.076C253.016 31.076 252.476 30.932 252.116 30.824L251.54 33.164C252.116 33.38 252.8 33.524 253.592 33.524ZM276.772 26.432C281.056 26.432 284.872 23.084 284.872 17.288C284.872 11.42 281.056 8.072 276.772 8.072C272.488 8.072 268.672 11.42 268.672 17.288C268.672 23.084 272.488 26.432 276.772 26.432ZM276.772 23.984C273.784 23.984 271.732 21.284 271.732 17.288C271.732 13.256 273.784 10.52 276.772 10.52C279.796 10.52 281.812 13.256 281.812 17.288C281.812 21.284 279.796 23.984 276.772 23.984ZM294.591 26.432C297.003 26.432 298.731 25.172 300.351 23.264H300.459L300.711 26H303.159V8.504H300.207V20.924C298.551 22.976 297.291 23.876 295.491 23.876C293.187 23.876 292.215 22.472 292.215 19.196V8.504H289.227V19.592C289.227 24.056 290.883 26.432 294.591 26.432ZM309.061 26H312.013V14.768C313.201 11.816 314.965 10.736 316.441 10.736C317.161 10.736 317.557 10.844 318.133 11.024L318.709 8.432C318.133 8.18 317.593 8.072 316.837 8.072C314.857 8.072 313.057 9.476 311.869 11.672H311.761L311.509 8.504H309.061V26ZM333.321 26.432C337.461 26.432 339.729 24.056 339.729 21.212C339.729 17.9 336.921 16.856 334.401 15.92C332.421 15.164 330.621 14.552 330.621 12.896C330.621 11.564 331.629 10.376 333.825 10.376C335.373 10.376 336.633 11.024 337.821 11.924L339.261 10.052C337.893 8.972 335.985 8.072 333.825 8.072C330.009 8.072 327.777 10.232 327.777 13.04C327.777 15.992 330.405 17.18 332.889 18.08C334.797 18.8 336.885 19.592 336.885 21.392C336.885 22.904 335.733 24.128 333.429 24.128C331.341 24.128 329.793 23.264 328.281 22.04L326.805 24.02C328.461 25.388 330.837 26.432 333.321 26.432ZM350.635 26.432C354.919 26.432 358.735 23.084 358.735 17.288C358.735 11.42 354.919 8.072 350.635 8.072C346.351 8.072 342.535 11.42 342.535 17.288C342.535 23.084 346.351 26.432 350.635 26.432ZM350.635 23.984C347.647 23.984 345.595 21.284 345.595 17.288C345.595 13.256 347.647 10.52 350.635 10.52C353.659 10.52 355.675 13.256 355.675 17.288C355.675 21.284 353.659 23.984 350.635 23.984ZM370.255 26.432C372.343 26.432 374.323 25.604 375.907 24.2L374.611 22.22C373.531 23.192 372.127 23.984 370.507 23.984C367.303 23.984 365.107 21.284 365.107 17.288C365.107 13.256 367.411 10.52 370.579 10.52C371.983 10.52 373.063 11.168 374.071 12.068L375.583 10.124C374.359 9.008 372.775 8.072 370.471 8.072C365.971 8.072 362.047 11.42 362.047 17.288C362.047 23.084 365.611 26.432 370.255 26.432ZM379.761 26H382.713V8.504H379.761V26ZM381.273 4.904C382.425 4.904 383.253 4.148 383.253 2.96C383.253 1.808 382.425 1.016 381.273 1.016C380.121 1.016 379.293 1.808 379.293 2.96C379.293 4.148 380.121 4.904 381.273 4.904ZM392.652 26.432C394.848 26.432 396.792 25.28 398.448 23.912H398.556L398.808 26H401.256V15.272C401.256 10.916 399.456 8.072 395.172 8.072C392.364 8.072 389.916 9.296 388.296 10.34L389.448 12.392C390.816 11.456 392.652 10.52 394.668 10.52C397.548 10.52 398.268 12.68 398.268 14.912C390.816 15.74 387.54 17.648 387.54 21.464C387.54 24.596 389.736 26.432 392.652 26.432ZM393.516 24.056C391.788 24.056 390.42 23.228 390.42 21.248C390.42 19.016 392.436 17.576 398.268 16.856V21.716C396.576 23.228 395.208 24.056 393.516 24.056ZM409.893 26.432C410.685 26.432 411.189 26.324 411.585 26.144L411.189 23.912C410.865 23.984 410.721 23.984 410.541 23.984C410.109 23.984 409.713 23.624 409.713 22.688V0.368H406.761V22.472C406.761 25.028 407.661 26.432 409.893 26.432ZM423.143 26H426.095V13.328C427.859 11.564 429.083 10.628 430.883 10.628C433.187 10.628 434.195 12.032 434.195 15.308V26H437.147V14.912C437.147 10.448 435.491 8.072 431.819 8.072C429.407 8.072 427.607 9.368 425.951 11.024H425.843L425.591 8.504H423.143V26ZM449.923 26.432C452.299 26.432 454.171 25.604 455.683 24.632L454.639 22.688C453.343 23.516 451.939 24.056 450.283 24.056C446.935 24.056 444.667 21.68 444.451 17.972H456.259C456.331 17.54 456.367 16.892 456.367 16.28C456.367 11.276 453.847 8.072 449.383 8.072C445.387 8.072 441.535 11.564 441.535 17.288C441.535 23.012 445.243 26.432 449.923 26.432ZM444.415 15.848C444.775 12.392 447.007 10.412 449.455 10.412C452.191 10.412 453.775 12.32 453.775 15.848H444.415ZM465.847 26.432C466.927 26.432 468.115 26.108 469.087 25.784L468.511 23.552C467.935 23.768 467.143 24.02 466.531 24.02C464.515 24.02 463.831 22.796 463.831 20.636V10.916H468.547V8.504H463.831V3.608H461.347L460.987 8.504L458.251 8.684V10.916H460.843V20.6C460.843 24.056 462.103 26.432 465.847 26.432ZM475.275 26H478.731L481.179 16.64C481.647 14.984 482.007 13.328 482.403 11.564H482.547C482.979 13.328 483.303 14.948 483.735 16.604L486.255 26H489.855L494.535 8.504H491.727L489.171 18.62C488.811 20.276 488.487 21.86 488.091 23.48H487.947C487.551 21.86 487.155 20.276 486.723 18.62L483.987 8.504H481.107L478.407 18.62C477.975 20.24 477.615 21.86 477.219 23.48H477.075C476.751 21.86 476.427 20.276 476.031 18.62L473.439 8.504H470.415L475.275 26ZM505.006 26.432C509.29 26.432 513.106 23.084 513.106 17.288C513.106 11.42 509.29 8.072 505.006 8.072C500.722 8.072 496.906 11.42 496.906 17.288C496.906 23.084 500.722 26.432 505.006 26.432ZM505.006 23.984C502.018 23.984 499.966 21.284 499.966 17.288C499.966 13.256 502.018 10.52 505.006 10.52C508.03 10.52 510.046 13.256 510.046 17.288C510.046 21.284 508.03 23.984 505.006 23.984ZM517.714 26H520.666V14.768C521.854 11.816 523.618 10.736 525.094 10.736C525.814 10.736 526.21 10.844 526.786 11.024L527.362 8.432C526.786 8.18 526.246 8.072 525.49 8.072C523.51 8.072 521.71 9.476 520.522 11.672H520.414L520.162 8.504H517.714V26ZM530.194 26H533.11V21.392L536.386 17.576L541.498 26H544.738L538.078 15.524L543.946 8.504H540.67L533.218 17.72H533.11V0.368H530.194V26ZM552.59 26.432C556.73 26.432 558.998 24.056 558.998 21.212C558.998 17.9 556.19 16.856 553.67 15.92C551.69 15.164 549.89 14.552 549.89 12.896C549.89 11.564 550.898 10.376 553.094 10.376C554.642 10.376 555.902 11.024 557.09 11.924L558.53 10.052C557.162 8.972 555.254 8.072 553.094 8.072C549.278 8.072 547.046 10.232 547.046 13.04C547.046 15.992 549.674 17.18 552.158 18.08C554.066 18.8 556.154 19.592 556.154 21.392C556.154 22.904 555.002 24.128 552.698 24.128C550.61 24.128 549.062 23.264 547.55 22.04L546.074 24.02C547.73 25.388 550.106 26.432 552.59 26.432ZM570.307 26H573.259V8.504H570.307V26ZM571.819 4.904C572.971 4.904 573.799 4.148 573.799 2.96C573.799 1.808 572.971 1.016 571.819 1.016C570.667 1.016 569.839 1.808 569.839 2.96C569.839 4.148 570.667 4.904 571.819 4.904ZM579.167 26H582.119V13.328C583.883 11.564 585.107 10.628 586.907 10.628C589.211 10.628 590.219 12.032 590.219 15.308V26H593.171V14.912C593.171 10.448 591.515 8.072 587.843 8.072C585.431 8.072 583.631 9.368 581.975 11.024H581.867L581.615 8.504H579.167V26ZM604.362 26.432C605.442 26.432 606.63 26.108 607.602 25.784L607.026 23.552C606.45 23.768 605.658 24.02 605.046 24.02C603.03 24.02 602.346 22.796 602.346 20.636V10.916H607.062V8.504H602.346V3.608H599.862L599.502 8.504L596.766 8.684V10.916H599.358V20.6C599.358 24.056 600.618 26.432 604.362 26.432ZM617.33 26.432C621.614 26.432 625.43 23.084 625.43 17.288C625.43 11.42 621.614 8.072 617.33 8.072C613.046 8.072 609.23 11.42 609.23 17.288C609.23 23.084 613.046 26.432 617.33 26.432ZM617.33 23.984C614.342 23.984 612.29 21.284 612.29 17.288C612.29 13.256 614.342 10.52 617.33 10.52C620.354 10.52 622.37 13.256 622.37 17.288C622.37 21.284 620.354 23.984 617.33 23.984ZM644.049 26.432C648.333 26.432 652.149 23.084 652.149 17.288C652.149 11.42 648.333 8.072 644.049 8.072C639.765 8.072 635.949 11.42 635.949 17.288C635.949 23.084 639.765 26.432 644.049 26.432ZM644.049 23.984C641.061 23.984 639.009 21.284 639.009 17.288C639.009 13.256 641.061 10.52 644.049 10.52C647.073 10.52 649.089 13.256 649.089 17.288C649.089 21.284 647.073 23.984 644.049 23.984ZM656.757 26H659.709V13.328C661.473 11.564 662.697 10.628 664.497 10.628C666.801 10.628 667.809 12.032 667.809 15.308V26H670.761V14.912C670.761 10.448 669.105 8.072 665.433 8.072C663.021 8.072 661.221 9.368 659.565 11.024H659.457L659.205 8.504H656.757V26ZM683.536 26.432C685.912 26.432 687.784 25.604 689.296 24.632L688.252 22.688C686.956 23.516 685.552 24.056 683.896 24.056C680.548 24.056 678.28 21.68 678.064 17.972H689.872C689.944 17.54 689.98 16.892 689.98 16.28C689.98 11.276 687.46 8.072 682.996 8.072C679 8.072 675.148 11.564 675.148 17.288C675.148 23.012 678.856 26.432 683.536 26.432ZM678.028 15.848C678.388 12.392 680.62 10.412 683.068 10.412C685.804 10.412 687.388 12.32 687.388 15.848H678.028ZM701.511 33.38H704.463V27.476L704.391 24.416C706.011 25.676 707.631 26.432 709.251 26.432C713.247 26.432 716.811 22.94 716.811 17C716.811 11.564 714.399 8.072 709.899 8.072C707.847 8.072 705.903 9.188 704.319 10.52H704.211L703.959 8.504H701.511V33.38ZM708.747 23.948C707.595 23.948 706.047 23.444 704.463 22.112V12.932C706.191 11.384 707.667 10.556 709.143 10.556C712.455 10.556 713.751 13.148 713.751 17C713.751 21.32 711.627 23.948 708.747 23.948ZM724.611 26.432C725.403 26.432 725.907 26.324 726.303 26.144L725.907 23.912C725.583 23.984 725.439 23.984 725.259 23.984C724.827 23.984 724.431 23.624 724.431 22.688V0.368H721.479V22.472C721.479 25.028 722.379 26.432 724.611 26.432ZM734.687 26.432C736.883 26.432 738.827 25.28 740.483 23.912H740.591L740.843 26H743.291V15.272C743.291 10.916 741.491 8.072 737.207 8.072C734.399 8.072 731.951 9.296 730.331 10.34L731.483 12.392C732.851 11.456 734.687 10.52 736.703 10.52C739.583 10.52 740.303 12.68 740.303 14.912C732.851 15.74 729.575 17.648 729.575 21.464C729.575 24.596 731.771 26.432 734.687 26.432ZM735.551 24.056C733.823 24.056 732.455 23.228 732.455 21.248C732.455 19.016 734.471 17.576 740.303 16.856V21.716C738.611 23.228 737.243 24.056 735.551 24.056ZM755.708 26.432C757.796 26.432 759.776 25.604 761.36 24.2L760.064 22.22C758.984 23.192 757.58 23.984 755.96 23.984C752.756 23.984 750.56 21.284 750.56 17.288C750.56 13.256 752.864 10.52 756.032 10.52C757.436 10.52 758.516 11.168 759.524 12.068L761.036 10.124C759.812 9.008 758.228 8.072 755.924 8.072C751.424 8.072 747.5 11.42 747.5 17.288C747.5 23.084 751.064 26.432 755.708 26.432ZM771.532 26.432C773.908 26.432 775.78 25.604 777.292 24.632L776.248 22.688C774.952 23.516 773.548 24.056 771.892 24.056C768.544 24.056 766.276 21.68 766.06 17.972H777.868C777.94 17.54 777.976 16.892 777.976 16.28C777.976 11.276 775.456 8.072 770.992 8.072C766.996 8.072 763.144 11.564 763.144 17.288C763.144 23.012 766.852 26.432 771.532 26.432ZM766.024 15.848C766.384 12.392 768.616 10.412 771.064 10.412C773.8 10.412 775.384 12.32 775.384 15.848H766.024ZM781.76 32.12C784.676 30.896 786.476 28.484 786.476 25.388C786.476 23.228 785.54 21.896 783.992 21.896C782.804 21.896 781.796 22.688 781.796 23.984C781.796 25.316 782.768 26.036 783.92 26.036C784.028 26.036 784.172 26.036 784.28 26C784.316 27.908 783.092 29.492 781.04 30.392L781.76 32.12ZM803.044 26.432C807.184 26.432 809.452 24.056 809.452 21.212C809.452 17.9 806.644 16.856 804.124 15.92C802.144 15.164 800.344 14.552 800.344 12.896C800.344 11.564 801.352 10.376 803.548 10.376C805.096 10.376 806.356 11.024 807.544 11.924L808.984 10.052C807.616 8.972 805.708 8.072 803.548 8.072C799.732 8.072 797.5 10.232 797.5 13.04C797.5 15.992 800.128 17.18 802.612 18.08C804.52 18.8 806.608 19.592 806.608 21.392C806.608 22.904 805.456 24.128 803.152 24.128C801.064 24.128 799.516 23.264 798.004 22.04L796.528 24.02C798.184 25.388 800.56 26.432 803.044 26.432ZM820.358 26.432C824.642 26.432 828.458 23.084 828.458 17.288C828.458 11.42 824.642 8.072 820.358 8.072C816.074 8.072 812.258 11.42 812.258 17.288C812.258 23.084 816.074 26.432 820.358 26.432ZM820.358 23.984C817.37 23.984 815.318 21.284 815.318 17.288C815.318 13.256 817.37 10.52 820.358 10.52C823.382 10.52 825.398 13.256 825.398 17.288C825.398 21.284 823.382 23.984 820.358 23.984ZM840.56 33.524C844.088 33.524 845.888 30.896 847.112 27.44L853.7 8.504H850.82L847.688 18.188C847.22 19.736 846.716 21.536 846.212 23.12H846.068C845.528 21.5 844.916 19.7 844.376 18.188L840.812 8.504H837.752L844.772 26.036L844.376 27.332C843.656 29.492 842.396 31.076 840.416 31.076C839.984 31.076 839.444 30.932 839.084 30.824L838.508 33.164C839.084 33.38 839.768 33.524 840.56 33.524ZM863.74 26.432C868.024 26.432 871.84 23.084 871.84 17.288C871.84 11.42 868.024 8.072 863.74 8.072C859.456 8.072 855.64 11.42 855.64 17.288C855.64 23.084 859.456 26.432 863.74 26.432ZM863.74 23.984C860.752 23.984 858.7 21.284 858.7 17.288C858.7 13.256 860.752 10.52 863.74 10.52C866.764 10.52 868.78 13.256 868.78 17.288C868.78 21.284 866.764 23.984 863.74 23.984ZM881.56 26.432C883.972 26.432 885.7 25.172 887.32 23.264H887.428L887.68 26H890.128V8.504H887.176V20.924C885.52 22.976 884.26 23.876 882.46 23.876C880.156 23.876 879.184 22.472 879.184 19.196V8.504H876.196V19.592C876.196 24.056 877.852 26.432 881.56 26.432ZM910.149 26.432C912.237 26.432 914.217 25.604 915.801 24.2L914.505 22.22C913.425 23.192 912.021 23.984 910.401 23.984C907.197 23.984 905.001 21.284 905.001 17.288C905.001 13.256 907.305 10.52 910.473 10.52C911.877 10.52 912.957 11.168 913.965 12.068L915.477 10.124C914.253 9.008 912.669 8.072 910.365 8.072C905.865 8.072 901.941 11.42 901.941 17.288C901.941 23.084 905.505 26.432 910.149 26.432ZM923.336 26.432C925.532 26.432 927.476 25.28 929.132 23.912H929.24L929.492 26H931.94V15.272C931.94 10.916 930.14 8.072 925.856 8.072C923.048 8.072 920.6 9.296 918.98 10.34L920.132 12.392C921.5 11.456 923.336 10.52 925.352 10.52C928.232 10.52 928.952 12.68 928.952 14.912C921.5 15.74 918.224 17.648 918.224 21.464C918.224 24.596 920.42 26.432 923.336 26.432ZM924.2 24.056C922.472 24.056 921.104 23.228 921.104 21.248C921.104 19.016 923.12 17.576 928.952 16.856V21.716C927.26 23.228 925.892 24.056 924.2 24.056ZM937.444 26H940.396V13.328C942.16 11.564 943.384 10.628 945.184 10.628C947.488 10.628 948.496 12.032 948.496 15.308V26H951.448V14.912C951.448 10.448 949.792 8.072 946.12 8.072C943.708 8.072 941.908 9.368 940.252 11.024H940.144L939.892 8.504H937.444V26ZM8.692 71.432C12.688 71.432 16.252 67.94 16.252 61.964C16.252 56.564 13.84 53.072 9.304 53.072C7.36 53.072 5.416 54.116 3.832 55.52L3.904 52.352V45.368H0.952V71H3.328L3.58 69.2H3.688C5.236 70.604 7.072 71.432 8.692 71.432ZM8.188 68.948C7.036 68.948 5.452 68.444 3.904 67.112V57.932C5.56 56.384 7.108 55.556 8.584 55.556C11.896 55.556 13.192 58.148 13.192 62C13.192 66.32 11.068 68.948 8.188 68.948ZM25.9624 71.432C28.3744 71.432 30.1024 70.172 31.7224 68.264H31.8304L32.0824 71H34.5304V53.504H31.5784V65.924C29.9224 67.976 28.6624 68.876 26.8624 68.876C24.5584 68.876 23.5864 67.472 23.5864 64.196V53.504H20.5984V64.592C20.5984 69.056 22.2544 71.432 25.9624 71.432ZM40.4325 71H43.3845V53.504H40.4325V71ZM41.9445 49.904C43.0965 49.904 43.9245 49.148 43.9245 47.96C43.9245 46.808 43.0965 46.016 41.9445 46.016C40.7925 46.016 39.9645 46.808 39.9645 47.96C39.9645 49.148 40.7925 49.904 41.9445 49.904ZM52.4238 71.432C53.2158 71.432 53.7198 71.324 54.1158 71.144L53.7198 68.912C53.3958 68.984 53.2518 68.984 53.0718 68.984C52.6398 68.984 52.2438 68.624 52.2438 67.688V45.368H49.2918V67.472C49.2918 70.028 50.1918 71.432 52.4238 71.432ZM64.4436 71.432C66.4956 71.432 68.3676 70.28 69.7356 68.948H69.8436L70.0956 71H72.5436V45.368H69.5556V52.1L69.6996 55.088C68.1516 53.828 66.8196 53.072 64.8036 53.072C60.8076 53.072 57.2076 56.6 57.2076 62.288C57.2076 68.12 60.0516 71.432 64.4436 71.432ZM65.0916 68.948C62.0316 68.948 60.2676 66.428 60.2676 62.252C60.2676 58.256 62.4996 55.556 65.3076 55.556C66.7476 55.556 68.0796 56.06 69.5556 57.392V66.536C68.1156 68.156 66.7116 68.948 65.0916 68.948ZM89.6754 71.432C91.8714 71.432 93.8154 70.28 95.4714 68.912H95.5794L95.8314 71H98.2794V60.272C98.2794 55.916 96.4794 53.072 92.1954 53.072C89.3874 53.072 86.9394 54.296 85.3194 55.34L86.4714 57.392C87.8394 56.456 89.6754 55.52 91.6914 55.52C94.5714 55.52 95.2914 57.68 95.2914 59.912C87.8394 60.74 84.5634 62.648 84.5634 66.464C84.5634 69.596 86.7594 71.432 89.6754 71.432ZM90.5394 69.056C88.8114 69.056 87.4434 68.228 87.4434 66.248C87.4434 64.016 89.4594 62.576 95.2914 61.856V66.716C93.5994 68.228 92.2314 69.056 90.5394 69.056ZM103.784 71H106.736V58.328C108.5 56.564 109.724 55.628 111.524 55.628C113.828 55.628 114.836 57.032 114.836 60.308V71H117.788V59.912C117.788 55.448 116.132 53.072 112.46 53.072C110.048 53.072 108.248 54.368 106.592 56.024H106.484L106.232 53.504H103.784V71ZM129.448 71.432C131.5 71.432 133.372 70.28 134.74 68.948H134.848L135.1 71H137.548V45.368H134.56V52.1L134.704 55.088C133.156 53.828 131.824 53.072 129.808 53.072C125.812 53.072 122.212 56.6 122.212 62.288C122.212 68.12 125.056 71.432 129.448 71.432ZM130.096 68.948C127.036 68.948 125.272 66.428 125.272 62.252C125.272 58.256 127.504 55.556 130.312 55.556C131.752 55.556 133.084 56.06 134.56 57.392V66.536C133.12 68.156 131.716 68.948 130.096 68.948ZM150.647 71H153.599V58.328C155.219 56.528 156.695 55.628 157.991 55.628C160.223 55.628 161.267 57.032 161.267 60.308V71H164.219V58.328C165.839 56.528 167.243 55.628 168.611 55.628C170.807 55.628 171.851 57.032 171.851 60.308V71H174.803V59.912C174.803 55.448 173.075 53.072 169.475 53.072C167.351 53.072 165.551 54.44 163.715 56.42C162.995 54.332 161.555 53.072 158.891 53.072C156.803 53.072 154.967 54.368 153.455 56.024H153.347L153.095 53.504H150.647V71ZM184.527 71.432C186.723 71.432 188.667 70.28 190.323 68.912H190.431L190.683 71H193.131V60.272C193.131 55.916 191.331 53.072 187.047 53.072C184.239 53.072 181.791 54.296 180.171 55.34L181.323 57.392C182.691 56.456 184.527 55.52 186.543 55.52C189.423 55.52 190.143 57.68 190.143 59.912C182.691 60.74 179.415 62.648 179.415 66.464C179.415 69.596 181.611 71.432 184.527 71.432ZM185.391 69.056C183.663 69.056 182.295 68.228 182.295 66.248C182.295 64.016 184.311 62.576 190.143 61.856V66.716C188.451 68.228 187.083 69.056 185.391 69.056ZM198.636 71H201.588V53.504H198.636V71ZM200.148 49.904C201.3 49.904 202.128 49.148 202.128 47.96C202.128 46.808 201.3 46.016 200.148 46.016C198.996 46.016 198.168 46.808 198.168 47.96C198.168 49.148 198.996 49.904 200.148 49.904ZM207.495 71H210.447V58.328C212.211 56.564 213.435 55.628 215.235 55.628C217.539 55.628 218.547 57.032 218.547 60.308V71H221.499V59.912C221.499 55.448 219.843 53.072 216.171 53.072C213.759 53.072 211.959 54.368 210.303 56.024H210.195L209.943 53.504H207.495V71ZM232.69 71.432C233.77 71.432 234.958 71.108 235.93 70.784L235.354 68.552C234.778 68.768 233.986 69.02 233.374 69.02C231.358 69.02 230.674 67.796 230.674 65.636V55.916H235.39V53.504H230.674V48.608H228.19L227.83 53.504L225.094 53.684V55.916H227.686V65.6C227.686 69.056 228.946 71.432 232.69 71.432ZM242.605 71.432C244.801 71.432 246.745 70.28 248.401 68.912H248.509L248.761 71H251.209V60.272C251.209 55.916 249.409 53.072 245.125 53.072C242.317 53.072 239.869 54.296 238.249 55.34L239.401 57.392C240.769 56.456 242.605 55.52 244.621 55.52C247.501 55.52 248.221 57.68 248.221 59.912C240.769 60.74 237.493 62.648 237.493 66.464C237.493 69.596 239.689 71.432 242.605 71.432ZM243.469 69.056C241.741 69.056 240.373 68.228 240.373 66.248C240.373 64.016 242.389 62.576 248.221 61.856V66.716C246.529 68.228 245.161 69.056 243.469 69.056ZM256.714 71H259.666V53.504H256.714V71ZM258.226 49.904C259.378 49.904 260.206 49.148 260.206 47.96C260.206 46.808 259.378 46.016 258.226 46.016C257.074 46.016 256.246 46.808 256.246 47.96C256.246 49.148 257.074 49.904 258.226 49.904ZM265.573 71H268.525V58.328C270.289 56.564 271.513 55.628 273.313 55.628C275.617 55.628 276.625 57.032 276.625 60.308V71H279.577V59.912C279.577 55.448 277.921 53.072 274.249 53.072C271.837 53.072 270.037 54.368 268.381 56.024H268.273L268.021 53.504H265.573V71ZM300.208 71.432C304.204 71.432 307.768 67.94 307.768 61.964C307.768 56.564 305.356 53.072 300.82 53.072C298.876 53.072 296.932 54.116 295.348 55.52L295.42 52.352V45.368H292.468V71H294.844L295.096 69.2H295.204C296.752 70.604 298.588 71.432 300.208 71.432ZM299.704 68.948C298.552 68.948 296.968 68.444 295.42 67.112V57.932C297.076 56.384 298.624 55.556 300.1 55.556C303.412 55.556 304.708 58.148 304.708 62C304.708 66.32 302.584 68.948 299.704 68.948ZM319.458 71.432C321.834 71.432 323.706 70.604 325.218 69.632L324.174 67.688C322.878 68.516 321.474 69.056 319.818 69.056C316.47 69.056 314.202 66.68 313.986 62.972H325.794C325.866 62.54 325.902 61.892 325.902 61.28C325.902 56.276 323.382 53.072 318.918 53.072C314.922 53.072 311.07 56.564 311.07 62.288C311.07 68.012 314.778 71.432 319.458 71.432ZM313.95 60.848C314.31 57.392 316.542 55.412 318.99 55.412C321.726 55.412 323.31 57.32 323.31 60.848H313.95ZM335.382 71.432C336.462 71.432 337.65 71.108 338.622 70.784L338.046 68.552C337.47 68.768 336.678 69.02 336.066 69.02C334.05 69.02 333.366 67.796 333.366 65.636V55.916H338.082V53.504H333.366V48.608H330.882L330.522 53.504L327.786 53.684V55.916H330.378V65.6C330.378 69.056 331.638 71.432 335.382 71.432ZM346.843 71.432C347.923 71.432 349.111 71.108 350.083 70.784L349.507 68.552C348.931 68.768 348.139 69.02 347.527 69.02C345.511 69.02 344.827 67.796 344.827 65.636V55.916H349.543V53.504H344.827V48.608H342.343L341.983 53.504L339.247 53.684V55.916H341.839V65.6C341.839 69.056 343.099 71.432 346.843 71.432ZM360.099 71.432C362.475 71.432 364.347 70.604 365.859 69.632L364.815 67.688C363.519 68.516 362.115 69.056 360.459 69.056C357.111 69.056 354.843 66.68 354.627 62.972H366.435C366.507 62.54 366.543 61.892 366.543 61.28C366.543 56.276 364.023 53.072 359.559 53.072C355.563 53.072 351.711 56.564 351.711 62.288C351.711 68.012 355.419 71.432 360.099 71.432ZM354.591 60.848C354.951 57.392 357.183 55.412 359.631 55.412C362.367 55.412 363.951 57.32 363.951 60.848H354.591ZM370.866 71H373.818V59.768C375.006 56.816 376.77 55.736 378.246 55.736C378.966 55.736 379.362 55.844 379.938 56.024L380.514 53.432C379.938 53.18 379.398 53.072 378.642 53.072C376.662 53.072 374.862 54.476 373.674 56.672H373.566L373.314 53.504H370.866V71ZM390.554 71H393.506V59.768C394.694 56.816 396.458 55.736 397.934 55.736C398.654 55.736 399.05 55.844 399.626 56.024L400.202 53.432C399.626 53.18 399.086 53.072 398.33 53.072C396.35 53.072 394.55 54.476 393.362 56.672H393.254L393.002 53.504H390.554V71ZM409.774 71.432C412.15 71.432 414.022 70.604 415.534 69.632L414.49 67.688C413.194 68.516 411.79 69.056 410.134 69.056C406.786 69.056 404.518 66.68 404.302 62.972H416.11C416.182 62.54 416.218 61.892 416.218 61.28C416.218 56.276 413.698 53.072 409.234 53.072C405.238 53.072 401.386 56.564 401.386 62.288C401.386 68.012 405.094 71.432 409.774 71.432ZM404.266 60.848C404.626 57.392 406.858 55.412 409.306 55.412C412.042 55.412 413.626 57.32 413.626 60.848H404.266ZM423.674 71.432C424.466 71.432 424.97 71.324 425.366 71.144L424.97 68.912C424.646 68.984 424.502 68.984 424.322 68.984C423.89 68.984 423.494 68.624 423.494 67.688V45.368H420.542V67.472C420.542 70.028 421.442 71.432 423.674 71.432ZM433.75 71.432C435.946 71.432 437.89 70.28 439.546 68.912H439.654L439.906 71H442.354V60.272C442.354 55.916 440.554 53.072 436.27 53.072C433.462 53.072 431.014 54.296 429.394 55.34L430.546 57.392C431.914 56.456 433.75 55.52 435.766 55.52C438.646 55.52 439.366 57.68 439.366 59.912C431.914 60.74 428.638 62.648 428.638 66.464C428.638 69.596 430.834 71.432 433.75 71.432ZM434.614 69.056C432.886 69.056 431.518 68.228 431.518 66.248C431.518 64.016 433.534 62.576 439.366 61.856V66.716C437.674 68.228 436.306 69.056 434.614 69.056ZM452.874 71.432C453.954 71.432 455.142 71.108 456.114 70.784L455.538 68.552C454.962 68.768 454.17 69.02 453.558 69.02C451.542 69.02 450.858 67.796 450.858 65.636V55.916H455.574V53.504H450.858V48.608H448.374L448.014 53.504L445.278 53.684V55.916H447.87V65.6C447.87 69.056 449.13 71.432 452.874 71.432ZM459.53 71H462.482V53.504H459.53V71ZM461.042 49.904C462.194 49.904 463.022 49.148 463.022 47.96C463.022 46.808 462.194 46.016 461.042 46.016C459.89 46.016 459.062 46.808 459.062 47.96C459.062 49.148 459.89 49.904 461.042 49.904ZM475.194 71.432C479.478 71.432 483.294 68.084 483.294 62.288C483.294 56.42 479.478 53.072 475.194 53.072C470.91 53.072 467.094 56.42 467.094 62.288C467.094 68.084 470.91 71.432 475.194 71.432ZM475.194 68.984C472.206 68.984 470.154 66.284 470.154 62.288C470.154 58.256 472.206 55.52 475.194 55.52C478.218 55.52 480.234 58.256 480.234 62.288C480.234 66.284 478.218 68.984 475.194 68.984ZM487.901 71H490.853V58.328C492.617 56.564 493.841 55.628 495.641 55.628C497.945 55.628 498.953 57.032 498.953 60.308V71H501.905V59.912C501.905 55.448 500.249 53.072 496.577 53.072C494.165 53.072 492.365 54.368 490.709 56.024H490.601L490.349 53.504H487.901V71ZM512.161 71.432C516.301 71.432 518.569 69.056 518.569 66.212C518.569 62.9 515.761 61.856 513.241 60.92C511.261 60.164 509.461 59.552 509.461 57.896C509.461 56.564 510.469 55.376 512.665 55.376C514.213 55.376 515.473 56.024 516.661 56.924L518.101 55.052C516.733 53.972 514.825 53.072 512.665 53.072C508.849 53.072 506.617 55.232 506.617 58.04C506.617 60.992 509.245 62.18 511.729 63.08C513.637 63.8 515.725 64.592 515.725 66.392C515.725 67.904 514.573 69.128 512.269 69.128C510.181 69.128 508.633 68.264 507.121 67.04L505.645 69.02C507.301 70.388 509.677 71.432 512.161 71.432ZM522.671 71H525.623V58.328C527.387 56.564 528.611 55.628 530.411 55.628C532.715 55.628 533.723 57.032 533.723 60.308V71H536.675V59.912C536.675 55.448 535.019 53.072 531.347 53.072C528.935 53.072 527.171 54.368 525.515 55.952L525.623 52.352V45.368H522.671V71ZM542.253 71H545.205V53.504H542.253V71ZM543.765 49.904C544.917 49.904 545.745 49.148 545.745 47.96C545.745 46.808 544.917 46.016 543.765 46.016C542.613 46.016 541.785 46.808 541.785 47.96C541.785 49.148 542.613 49.904 543.765 49.904ZM551.112 78.38H554.064V72.476L553.992 69.416C555.612 70.676 557.232 71.432 558.852 71.432C562.848 71.432 566.412 67.94 566.412 62C566.412 56.564 564 53.072 559.5 53.072C557.448 53.072 555.504 54.188 553.92 55.52H553.812L553.56 53.504H551.112V78.38ZM558.348 68.948C557.196 68.948 555.648 68.444 554.064 67.112V57.932C555.792 56.384 557.268 55.556 558.744 55.556C562.056 55.556 563.352 58.148 563.352 62C563.352 66.32 561.228 68.948 558.348 68.948ZM575.653 71.432C579.793 71.432 582.061 69.056 582.061 66.212C582.061 62.9 579.253 61.856 576.733 60.92C574.753 60.164 572.953 59.552 572.953 57.896C572.953 56.564 573.961 55.376 576.157 55.376C577.705 55.376 578.965 56.024 580.153 56.924L581.593 55.052C580.225 53.972 578.317 53.072 576.157 53.072C572.341 53.072 570.109 55.232 570.109 58.04C570.109 60.992 572.737 62.18 575.221 63.08C577.129 63.8 579.217 64.592 579.217 66.392C579.217 67.904 578.065 69.128 575.761 69.128C573.673 69.128 572.125 68.264 570.613 67.04L569.137 69.02C570.793 70.388 573.169 71.432 575.653 71.432ZM587.711 71.432C588.863 71.432 589.835 70.496 589.835 69.2C589.835 67.832 588.863 66.896 587.711 66.896C586.523 66.896 585.551 67.832 585.551 69.2C585.551 70.496 586.523 71.432 587.711 71.432Z" fill="black"/>
</svg>
